<svg width="63" height="30" viewBox="0 0 63 30" fill="none" xmlns="http://www.w3.org/2000/svg">
<path d="M24.2701 2.736C24.3421 3.144 24.3901 3.432 24.4141 3.6C24.4621 3.744 24.4861 3.948 24.4861 4.212C24.4861 5.004 24.3061 5.748 23.9461 6.444C23.6101 7.116 23.1421 7.596 22.5421 7.884C22.0621 7.236 21.4741 6.684 20.7781 6.228C20.0821 5.748 19.3141 5.364 18.4741 5.076C17.6581 4.764 16.8061 4.536 15.9181 4.392C15.0301 4.248 14.1661 4.176 13.3261 4.176C12.4861 4.176 11.6941 4.248 10.9501 4.392C10.2301 4.512 9.58211 4.692 9.00611 4.932C8.45411 5.148 8.01011 5.424 7.67411 5.76C7.36211 6.096 7.20611 6.48 7.20611 6.912C7.27811 7.44 7.60211 7.98 8.17811 8.532C8.75411 9.06 9.46211 9.588 10.3021 10.116C11.1421 10.62 12.0661 11.124 13.0741 11.628C14.1061 12.132 15.1141 12.612 16.0981 13.068C17.3221 13.644 18.3781 14.184 19.2661 14.688C20.1541 15.168 20.8861 15.708 21.4621 16.308C22.0381 16.884 22.4701 17.544 22.7581 18.288C23.0461 19.032 23.1901 19.932 23.1901 20.988C23.1901 22.212 22.9861 23.364 22.5781 24.444C22.1701 25.5 21.5701 26.424 20.7781 27.216C20.0101 28.008 19.0741 28.62 17.9701 29.052C16.8661 29.508 15.6301 29.736 14.2621 29.736C12.9181 29.736 11.4661 29.532 9.90611 29.124C8.34611 28.716 6.88211 28.152 5.51411 27.432C4.17011 26.736 3.04211 25.932 2.13011 25.02C1.24211 24.084 0.79811 23.1 0.79811 22.068C0.79811 21.588 0.93011 20.976 1.19411 20.232C1.48211 19.488 1.98611 18.708 2.70611 17.892C2.77811 18.612 3.16211 19.464 3.85811 20.448C4.57811 21.432 5.64611 22.344 7.06211 23.184C8.38211 23.952 9.73811 24.516 11.1301 24.876C12.5461 25.212 13.8661 25.38 15.0901 25.38C16.4341 25.38 17.5261 25.212 18.3661 24.876C19.2061 24.54 19.8661 24.144 20.3461 23.688C20.8261 23.208 21.1621 22.728 21.3541 22.248C21.5461 21.768 21.6541 21.384 21.6781 21.096C21.6541 20.616 21.4261 20.16 20.9941 19.728C20.5861 19.272 20.0221 18.84 19.3021 18.432C18.6061 18 17.7901 17.568 16.8541 17.136C15.9181 16.704 14.9461 16.272 13.9381 15.84C12.4261 15.168 11.1181 14.544 10.0141 13.968C8.93411 13.368 8.03411 12.768 7.31411 12.168C6.61811 11.544 6.10211 10.896 5.76611 10.224C5.45411 9.552 5.29811 8.784 5.29811 7.92C5.29811 6.576 5.70611 5.304 6.52211 4.104C7.33811 2.904 8.51411 1.992 10.0501 1.368C10.8181 1.032 11.6341 0.791999 12.4981 0.647998C13.3861 0.503999 14.2501 0.431999 15.0901 0.431999C16.6741 0.431999 18.2221 0.647999 19.7341 1.08C21.2461 1.512 22.7581 2.064 24.2701 2.736ZM29.7694 28.116C29.6494 27.132 29.5534 26.064 29.4814 24.912C29.4334 23.736 29.4094 22.644 29.4094 21.636C29.4094 20.028 29.4574 18.492 29.5534 17.028C29.6734 15.54 29.8054 13.992 29.9494 12.384C30.1174 10.752 30.2974 8.988 30.4894 7.092C30.6814 5.172 30.8494 2.964 30.9934 0.467998C31.3054 0.467998 31.7494 0.563998 32.3254 0.755999C32.9254 0.923998 33.5254 1.128 34.1254 1.368C34.7254 1.608 35.2534 1.86 35.7094 2.124C36.1654 2.364 36.4294 2.568 36.5014 2.736C36.0934 3.672 35.7214 4.908 35.3854 6.444C35.0734 7.956 34.8094 9.612 34.5934 11.412C34.3774 13.212 34.2094 15.06 34.0894 16.956C33.9694 18.852 33.9094 20.628 33.9094 22.284C33.9094 23.052 33.9214 23.808 33.9454 24.552C33.9694 25.296 34.0054 25.98 34.0534 26.604C34.5574 25.86 35.1334 24.804 35.7814 23.436C36.4534 22.044 37.1374 20.496 37.8334 18.792C38.5534 17.088 39.2614 15.312 39.9574 13.464C40.6774 11.592 41.3374 9.816 41.9374 8.136C42.5374 6.432 43.0414 4.908 43.4494 3.564C43.8814 2.196 44.1814 1.164 44.3494 0.467998C44.6614 0.467998 45.1174 0.563998 45.7174 0.755999C46.3414 0.923998 46.9414 1.128 47.5174 1.368C48.1174 1.608 48.6454 1.86 49.1014 2.124C49.5574 2.364 49.8094 2.568 49.8574 2.736C49.4494 3.672 49.0774 4.908 48.7414 6.444C48.4294 7.956 48.1654 9.612 47.9494 11.412C47.7334 13.212 47.5654 15.06 47.4454 16.956C47.3254 18.852 47.2654 20.628 47.2654 22.284C47.2654 22.98 47.2654 23.676 47.2654 24.372C47.2894 25.044 47.3254 25.656 47.3734 26.208C48.1414 24.216 48.9334 22.248 49.7494 20.304C50.5894 18.336 51.4174 16.464 52.2334 14.688C53.0494 12.888 53.8414 11.22 54.6094 9.684C55.3774 8.124 56.0854 6.744 56.7334 5.544C57.3814 4.32 57.9454 3.312 58.4254 2.52C58.9054 1.728 59.2774 1.2 59.5414 0.935999C60.0934 1.008 60.6574 1.212 61.2334 1.548C61.8334 1.86 62.3614 2.268 62.8174 2.772C62.1214 3.324 61.3294 4.236 60.4414 5.508C59.5534 6.756 58.6414 8.208 57.7054 9.864C56.7694 11.52 55.8214 13.284 54.8614 15.156C53.9254 17.028 53.0494 18.852 52.2334 20.628C51.4174 22.404 50.6854 24.06 50.0374 25.596C49.4134 27.132 48.9334 28.368 48.5974 29.304C47.9734 29.592 47.3614 29.736 46.7614 29.736C45.9934 29.64 45.2614 29.448 44.5654 29.16C43.8934 28.872 43.4134 28.524 43.1254 28.116C43.0534 27.732 42.9934 27.288 42.9454 26.784C42.8974 26.256 42.8614 25.74 42.8374 25.236C42.8134 24.732 42.7894 24.252 42.7654 23.796C42.7654 23.316 42.7654 22.908 42.7654 22.572C42.7654 20.436 42.8494 18.264 43.0174 16.056C43.1854 13.824 43.3894 11.436 43.6294 8.892C43.0774 10.524 42.4654 12.276 41.7934 14.148C41.1214 16.02 40.4134 17.88 39.6694 19.728C38.9494 21.552 38.2054 23.304 37.4374 24.984C36.6934 26.64 35.9614 28.08 35.2414 29.304C34.6174 29.592 34.0054 29.736 33.4054 29.736C32.6374 29.64 31.9054 29.448 31.2094 29.16C30.5374 28.872 30.0574 28.524 29.7694 28.116Z" fill="black"/>
</svg>
