<svg width="150" height="150" viewBox="0 0 150 150" fill="none" xmlns="http://www.w3.org/2000/svg">
<path d="M25.7812 65.625L81.9375 29.7773C90.5622 32.6022 98.4677 37.2726 105.104 43.4634C111.74 49.6543 116.947 57.2169 120.363 65.625H25.7812Z" fill="#E5DEC1"/>
<path d="M120.363 65.5898H25.7812V121.57H120.363V65.5898Z" fill="#F1EDD8"/>
<path d="M120.363 88.793H25.7812V107.098H120.363V88.793Z" fill="#EA563A"/>
<path d="M130.371 33.2812L114.773 29.2969C112.513 31.9579 109.735 34.1319 106.608 35.6871C103.482 37.2422 100.072 38.146 96.5859 38.3438L95.2617 38.4141L90.6797 51.8203L103.887 56.9063L104.801 55.9336C107.188 53.388 110.067 51.3535 113.264 49.9536C116.461 48.5536 119.909 47.8172 123.398 47.7891L130.371 33.2812Z" fill="#616834"/>
<path d="M131.168 32.9063C131.119 32.8015 131.05 32.7074 130.964 32.6294C130.879 32.5514 130.779 32.4911 130.67 32.4519C130.561 32.4127 130.445 32.3954 130.33 32.401C130.214 32.4066 130.101 32.4349 129.996 32.4844L107.895 42.8086C109.451 40.7343 110.345 38.239 110.461 35.6484C110.461 35.5325 110.438 35.4178 110.392 35.3114C110.346 35.205 110.278 35.1093 110.193 35.0301C110.109 34.9509 110.009 34.8901 109.9 34.8513C109.79 34.8125 109.674 34.7966 109.559 34.8047C109.444 34.8077 109.331 34.8335 109.226 34.8807C109.121 34.9278 109.026 34.9953 108.948 35.0793C108.869 35.1633 108.808 35.262 108.768 35.3698C108.728 35.4775 108.71 35.5922 108.715 35.707C108.721 36.6822 108.538 37.6494 108.176 38.5547L107.004 41.0156C106.259 42.2319 105.404 43.3773 104.449 44.4375L96.6328 48.0469L90.3164 51C90.0864 51.0482 89.885 51.1858 89.7564 51.3824C89.6279 51.5791 89.5827 51.8188 89.6309 52.0488C89.6791 52.2788 89.8166 52.4803 90.0133 52.6088C90.21 52.7374 90.4497 52.7826 90.6797 52.7344C90.8094 52.7366 90.9378 52.7086 91.0547 52.6524L97.1953 49.7813C98.0977 49.7813 102.668 49.957 105.656 52.6172C105.742 52.6941 105.841 52.7535 105.95 52.7919C106.058 52.8303 106.173 52.847 106.288 52.841C106.403 52.835 106.515 52.8065 106.619 52.757C106.723 52.7076 106.816 52.6382 106.893 52.5527C106.97 52.4673 107.029 52.3676 107.067 52.2592C107.106 52.1509 107.122 52.036 107.116 51.9212C107.11 51.8064 107.082 51.6939 107.032 51.5902C106.983 51.4864 106.914 51.3934 106.828 51.3164C104.952 49.7524 102.689 48.724 100.277 48.3399L110.824 43.4414C112.128 43.3082 113.444 43.3476 114.738 43.5586L117.258 44.1563C118.705 44.5831 120.091 45.1935 121.383 45.9727C121.527 46.0633 121.693 46.112 121.863 46.1133C122.01 46.1138 122.153 46.0762 122.281 46.0043C122.408 45.9324 122.515 45.8286 122.59 45.7031C122.706 45.5122 122.744 45.2838 122.696 45.0654C122.648 44.8471 122.518 44.6557 122.332 44.5313C119.922 43.087 117.242 42.1499 114.457 41.7774L130.863 34.1367C130.966 34.0776 131.055 33.9984 131.127 33.9039C131.198 33.8093 131.249 33.7013 131.278 33.5864C131.306 33.4715 131.311 33.352 131.292 33.2351C131.273 33.1183 131.231 33.0064 131.168 32.9063Z" fill="#8D934E"/>
<path d="M86.4375 31.5586C87.0412 30.5999 87.8782 29.81 88.87 29.2625C89.8619 28.715 90.9764 28.4278 92.1093 28.4278C93.2423 28.4278 94.3567 28.715 95.3486 29.2625C96.3405 29.81 97.1774 30.5999 97.7812 31.5586C100.488 35.8242 103.207 41.1563 103.57 45.7383C104.191 53.6719 95.6484 54.0117 92.9296 53.9414C92.3789 53.9414 91.8515 53.9414 91.3007 53.9414C88.582 54.0352 80.039 53.6953 80.6601 45.7383C81.0234 41.1563 83.7421 35.8242 86.4375 31.5586Z" fill="#EA563A"/>
<path d="M86.2032 48.5625C86.0494 48.561 85.8992 48.5163 85.7696 48.4336L84.0118 47.4141C83.8162 47.299 83.6735 47.1118 83.6143 46.8927C83.5552 46.6736 83.5843 46.4401 83.6953 46.2422C83.8145 46.051 84.0016 45.9121 84.219 45.8534C84.4365 45.7947 84.6681 45.8206 84.8672 45.9258L86.6133 46.9453C86.7807 47.0417 86.9117 47.1905 86.9861 47.3688C87.0604 47.5471 87.0739 47.7449 87.0246 47.9316C86.9752 48.1184 86.8657 48.2836 86.713 48.4019C86.5603 48.5202 86.3729 48.5849 86.1797 48.5859L86.2032 48.5625Z" fill="#553F07"/>
<path d="M88.9687 46.0313C88.7672 46.0327 88.5718 45.9621 88.4179 45.832C88.2568 45.6858 88.1556 45.4851 88.134 45.2686C88.1124 45.0522 88.1718 44.8354 88.3007 44.6602L90.0117 42.6094C90.0886 42.5209 90.1822 42.4484 90.2872 42.3961C90.3921 42.3438 90.5064 42.3127 90.6233 42.3045C90.7403 42.2964 90.8578 42.3113 90.969 42.3486C91.0802 42.3858 91.1829 42.4445 91.2714 42.5215C91.3599 42.5984 91.4324 42.6921 91.4847 42.797C91.537 42.902 91.5681 43.0162 91.5763 43.1332C91.5844 43.2502 91.5695 43.3676 91.5323 43.4788C91.495 43.59 91.4363 43.6928 91.3593 43.7813L89.6484 45.7031C89.5655 45.8037 89.4618 45.885 89.3445 45.9417C89.2272 45.9983 89.099 46.0289 88.9687 46.0313Z" fill="#553F07"/>
<path d="M89.3437 41.2969C89.1311 41.2977 88.926 41.2181 88.7695 41.0742L87.6679 40.1133C87.508 39.9654 87.4095 39.7628 87.3922 39.5457C87.3748 39.3285 87.4398 39.1128 87.5742 38.9414C87.7236 38.7832 87.927 38.6869 88.1441 38.6717C88.3612 38.6565 88.5761 38.7235 88.7461 38.8594L89.9179 39.8203C90.0761 39.9697 90.1724 40.1732 90.1876 40.3902C90.2028 40.6073 90.1358 40.8222 90 40.9922C89.9195 41.0878 89.819 41.1647 89.7056 41.2173C89.5923 41.27 89.4687 41.2971 89.3437 41.2969Z" fill="#553F07"/>
<path d="M92.1211 37.8398C91.9367 37.8377 91.7572 37.7806 91.6055 37.6758C91.4315 37.5409 91.3146 37.3456 91.2777 37.1286C91.2408 36.9116 91.2867 36.6887 91.4062 36.5039L92.332 35.2148C92.3982 35.1217 92.4821 35.0426 92.5788 34.9819C92.6756 34.9212 92.7834 34.8802 92.896 34.8611C93.0086 34.8421 93.1239 34.8454 93.2352 34.8709C93.3466 34.8964 93.4518 34.9436 93.5449 35.0098C93.638 35.0759 93.7172 35.1598 93.7779 35.2566C93.8386 35.3533 93.8796 35.4611 93.8986 35.5737C93.9177 35.6864 93.9144 35.8016 93.8889 35.913C93.8633 36.0243 93.8162 36.1296 93.75 36.2227L92.8242 37.5C92.7417 37.6077 92.6352 37.6945 92.5131 37.7536C92.3909 37.8126 92.2567 37.8421 92.1211 37.8398Z" fill="#553F07"/>
<path d="M97.7461 49.3828C97.624 49.3828 97.5033 49.3567 97.3921 49.3061C97.281 49.2556 97.1819 49.1818 97.1016 49.0898L95.9297 47.7539C95.7924 47.5853 95.7234 47.3713 95.7364 47.1543C95.7494 46.9372 95.8435 46.733 96 46.582C96.1675 46.4421 96.3821 46.3714 96.5999 46.3844C96.8178 46.3975 97.0224 46.4934 97.1719 46.6523L98.3438 47.9883C98.4242 48.0696 98.4876 48.1661 98.5306 48.2721C98.5735 48.3781 98.5951 48.4916 98.594 48.6059C98.5929 48.7203 98.5692 48.8333 98.5242 48.9385C98.4793 49.0437 98.414 49.1389 98.3321 49.2187C98.1635 49.3434 97.9549 49.4018 97.7461 49.3828Z" fill="#553F07"/>
<path d="M92.121 51.2812C91.992 51.2776 91.8648 51.2498 91.746 51.1992L89.4023 50.1328C89.2975 50.0837 89.2034 50.0145 89.1254 49.929C89.0475 49.8434 88.9871 49.7434 88.948 49.6345C88.9088 49.5256 88.8914 49.4101 88.897 49.2945C88.9026 49.1789 88.9309 49.0655 88.9804 48.9609C89.0269 48.8539 89.0948 48.7576 89.1799 48.6778C89.265 48.598 89.3655 48.5365 89.4753 48.4969C89.585 48.4574 89.7017 48.4408 89.8181 48.448C89.9346 48.4553 90.0483 48.4862 90.1523 48.5391L92.496 49.5937C92.6008 49.6428 92.6949 49.7121 92.7729 49.7976C92.8509 49.8831 92.9112 49.9832 92.9504 50.0921C92.9896 50.2009 93.0069 50.3165 93.0013 50.4321C92.9957 50.5477 92.9674 50.661 92.9179 50.7656C92.8508 50.9206 92.7394 51.0523 92.5975 51.1441C92.4557 51.2358 92.2899 51.2836 92.121 51.2812Z" fill="#553F07"/>
<path d="M95.9883 43.4297C95.7978 43.4269 95.6134 43.3623 95.4628 43.2456C95.3121 43.1289 95.2035 42.9664 95.1533 42.7826C95.1031 42.5989 95.1139 42.4037 95.1842 42.2266C95.2545 42.0495 95.3804 41.9001 95.543 41.8008L97.8868 40.4297C98.0833 40.3176 98.3158 40.2867 98.5347 40.3436C98.7536 40.4006 98.9416 40.5408 99.0586 40.7344C99.1678 40.9315 99.197 41.1631 99.1403 41.3811C99.0836 41.5992 98.9453 41.7872 98.754 41.9062L96.4102 43.2773C96.2856 43.3647 96.14 43.4173 95.9883 43.4297Z" fill="#553F07"/>
<path d="M98.9531 40.0547C98.8562 40.0715 98.7571 40.0715 98.6602 40.0547L96.3164 39.2344C96.2073 39.1975 96.1067 39.1393 96.0203 39.0631C95.934 38.987 95.8637 38.8944 95.8135 38.7907C95.7633 38.6871 95.7343 38.5745 95.7281 38.4596C95.7219 38.3446 95.7386 38.2295 95.7773 38.1211C95.815 38.006 95.876 37.8998 95.9565 37.8094C96.0371 37.719 96.1355 37.6461 96.2455 37.5955C96.3555 37.5449 96.4749 37.5176 96.5959 37.5153C96.717 37.5129 96.8373 37.5357 96.9492 37.582L99.293 38.4024C99.4092 38.4384 99.5164 38.4985 99.6079 38.5788C99.6993 38.659 99.7728 38.7576 99.8237 38.8681C99.8745 38.9787 99.9015 39.0986 99.903 39.2203C99.9044 39.3419 99.8802 39.4625 99.832 39.5742C99.7546 39.7365 99.628 39.8703 99.4702 39.9565C99.3125 40.0428 99.1315 40.0771 98.9531 40.0547Z" fill="#553F07"/>
<path d="M89.8242 34.1484C89.6206 34.152 89.4222 34.0837 89.2638 33.9557C89.1054 33.8276 88.9972 33.6479 88.9581 33.448C88.9189 33.2481 88.9514 33.0409 89.0498 32.8625C89.1481 32.6842 89.3061 32.5462 89.4961 32.4726L91.7812 31.5351C91.8895 31.4777 92.0085 31.4436 92.1307 31.4349C92.253 31.4262 92.3756 31.4431 92.4909 31.4846C92.6062 31.5262 92.7115 31.5913 92.8001 31.6759C92.8888 31.7606 92.9587 31.8628 93.0055 31.976C93.0522 32.0893 93.0748 32.211 93.0718 32.3335C93.0687 32.456 93.0401 32.5765 92.9877 32.6873C92.9353 32.7981 92.8603 32.8966 92.7676 32.9767C92.6749 33.0568 92.5664 33.1166 92.4492 33.1523L90.1054 34.0898C90.0145 34.1208 89.92 34.1405 89.8242 34.1484Z" fill="#553F07"/>
<path d="M100.523 47.5313C100.352 47.5334 100.183 47.4844 100.039 47.3905C99.895 47.2966 99.7822 47.1621 99.7149 47.0039L99.0703 45.5039C99.0099 45.3965 98.9728 45.2776 98.9613 45.1549C98.9499 45.0322 98.9643 44.9084 99.0038 44.7917C99.0433 44.6749 99.1068 44.5678 99.1904 44.4772C99.2739 44.3866 99.3756 44.3146 99.4888 44.2659C99.602 44.2171 99.7241 44.1927 99.8474 44.1943C99.9706 44.1958 100.092 44.2232 100.204 44.2748C100.316 44.3263 100.416 44.4009 100.497 44.4935C100.578 44.5861 100.639 44.6948 100.676 44.8125L101.32 46.3125C101.37 46.419 101.398 46.5346 101.402 46.6522C101.406 46.7698 101.386 46.887 101.343 46.9966C101.301 47.1062 101.236 47.206 101.154 47.2899C101.071 47.3737 100.972 47.4399 100.863 47.4844C100.756 47.5288 100.639 47.5449 100.523 47.5313Z" fill="#553F07"/>
</svg>
