<svg width="150" height="150" viewBox="0 0 150 150" fill="none" xmlns="http://www.w3.org/2000/svg">
<g clip-path="url(#clip0_33_677)">
<path d="M131.183 9.85925C120.523 8.22859 110.491 14.4952 106.987 24.2815H94.0851V35.3847H106.068C107.595 44.5758 114.768 52.188 124.483 53.6765C136.576 55.5269 147.886 47.2189 149.743 35.1196C151.59 23.02 143.282 11.7096 131.183 9.85925Z" fill="black"/>
<path d="M47.6411 99.0885C47.6411 97.0728 46.0072 95.4357 43.9884 95.4357H28.1719C26.153 95.4357 24.5194 97.0728 24.5194 99.0885C24.5194 101.101 26.153 102.741 28.1719 102.741H43.9886C46.0072 102.741 47.6411 101.101 47.6411 99.0885Z" fill="black"/>
<path d="M115.136 69.7163L83.2831 99.7418L72.1603 102.495V77.1184H0V140.398H72.1603V122.98L82.5744 121.301C87.5402 120.593 91.1865 119.34 95.5635 116.901L109.129 109.803V140.398H147.928V79.3441C147.928 59.3607 125.395 59.3056 115.136 69.7163ZM63.2801 131.517H8.88076V85.9989H63.2801V104.692L52.6104 107.331C47.9323 108.619 45.0788 113.343 46.1142 118.082L46.2015 118.448C47.2204 123.109 51.6656 126.192 56.3924 125.52L63.2801 124.41V131.517Z" fill="black"/>
</g>
<defs>
<clipPath id="clip0_33_677">
<rect width="150" height="150" fill="white"/>
</clipPath>
</defs>
</svg>
