<svg width="150" height="150" viewBox="0 0 150 150" fill="none" xmlns="http://www.w3.org/2000/svg">
<path d="M142.266 73.3125L133.313 64.3594L128.625 50.8125C128.478 50.3725 128.203 49.9862 127.836 49.7025C127.469 49.4187 127.025 49.2504 126.562 49.2188H96.0938V42.1875C96.0817 41.5697 95.831 40.9805 95.394 40.5435C94.957 40.1065 94.3678 39.8558 93.75 39.8438H9.375C8.7534 39.8438 8.15726 40.0907 7.71772 40.5302C7.27818 40.9698 7.03125 41.5659 7.03125 42.1875C7.03125 42.8091 7.27818 43.4052 7.71772 43.8448C8.15726 44.2843 8.7534 44.5312 9.375 44.5312H91.4062V91.4062H63.0469C62.5089 88.7571 61.0717 86.3755 58.9787 84.6647C56.8857 82.954 54.2657 82.0195 51.5625 82.0195C48.8593 82.0195 46.2393 82.954 44.1463 84.6647C42.0533 86.3755 40.6161 88.7571 40.0781 91.4062H23.4375C22.8159 91.4062 22.2198 91.6532 21.7802 92.0927C21.3407 92.5323 21.0938 93.1284 21.0938 93.75C21.0938 94.3716 21.3407 94.9677 21.7802 95.4073C22.2198 95.8468 22.8159 96.0938 23.4375 96.0938H40.0781C40.6161 98.7429 42.0533 101.125 44.1463 102.835C46.2393 104.546 48.8593 105.48 51.5625 105.48C54.2657 105.48 56.8857 104.546 58.9787 102.835C61.0717 101.125 62.5089 98.7429 63.0469 96.0938H105.703C106.241 98.7429 107.678 101.125 109.771 102.835C111.864 104.546 114.484 105.48 117.188 105.48C119.891 105.48 122.511 104.546 124.604 102.835C126.697 101.125 128.134 98.7429 128.672 96.0938H140.625C141.247 96.0938 141.843 95.8468 142.282 95.4073C142.722 94.9677 142.969 94.3716 142.969 93.75V75C142.967 74.3666 142.714 73.7596 142.266 73.3125ZM51.5625 100.781C50.1719 100.781 48.8124 100.369 47.6561 99.5963C46.4999 98.8237 45.5987 97.7255 45.0665 96.4407C44.5343 95.1559 44.3951 93.7422 44.6664 92.3783C44.9377 91.0143 45.6073 89.7615 46.5907 88.7782C47.574 87.7948 48.8268 87.1252 50.1908 86.8539C51.5547 86.5826 52.9684 86.7218 54.2532 87.254C55.538 87.7862 56.6362 88.6874 57.4088 89.8436C58.1814 90.9999 58.5938 92.3594 58.5938 93.75C58.5937 95.6148 57.853 97.4032 56.5343 98.7218C55.2157 100.04 53.4273 100.781 51.5625 100.781ZM117.188 100.781C115.797 100.781 114.437 100.369 113.281 99.5963C112.125 98.8237 111.224 97.7255 110.691 96.4407C110.159 95.1559 110.02 93.7422 110.291 92.3783C110.563 91.0143 111.232 89.7615 112.216 88.7782C113.199 87.7948 114.452 87.1252 115.816 86.8539C117.18 86.5826 118.593 86.7218 119.878 87.254C121.163 87.7862 122.261 88.6874 123.034 89.8436C123.806 90.9999 124.219 92.3594 124.219 93.75C124.219 95.6148 123.478 97.4032 122.159 98.7218C120.841 100.04 119.052 100.781 117.188 100.781ZM138.281 91.4062H128.672C128.134 88.7571 126.697 86.3755 124.604 84.6647C122.511 82.954 119.891 82.0195 117.188 82.0195C114.484 82.0195 111.864 82.954 109.771 84.6647C107.678 86.3755 106.241 88.7571 105.703 91.4062H96.0938V53.9062H124.875L129.047 66.375C129.143 66.7206 129.339 67.0304 129.609 67.2656L138.281 75.9844V91.4062Z" fill="black"/>
<path d="M53.9062 75C53.9062 74.3784 53.6593 73.7823 53.2198 73.3427C52.7802 72.9032 52.1841 72.6562 51.5625 72.6562H18.75C18.1284 72.6562 17.5323 72.9032 17.0927 73.3427C16.6532 73.7823 16.4062 74.3784 16.4062 75C16.4062 75.6216 16.6532 76.2177 17.0927 76.6573C17.5323 77.0968 18.1284 77.3438 18.75 77.3438H51.5625C52.1841 77.3438 52.7802 77.0968 53.2198 76.6573C53.6593 76.2177 53.9062 75.6216 53.9062 75Z" fill="black"/>
<path d="M56.25 63.2812C56.8716 63.2812 57.4677 63.0343 57.9073 62.5948C58.3468 62.1552 58.5938 61.5591 58.5938 60.9375C58.5938 60.3159 58.3468 59.7198 57.9073 59.2802C57.4677 58.8407 56.8716 58.5938 56.25 58.5938H32.8125C32.1909 58.5938 31.5948 58.8407 31.1552 59.2802C30.7157 59.7198 30.4688 60.3159 30.4688 60.9375C30.4688 61.5591 30.7157 62.1552 31.1552 62.5948C31.5948 63.0343 32.1909 63.2812 32.8125 63.2812H56.25Z" fill="black"/>
<path d="M21.0938 60.9375C21.0938 60.3159 20.8468 59.7198 20.4073 59.2802C19.9677 58.8407 19.3716 58.5938 18.75 58.5938H14.0625C13.4409 58.5938 12.8448 58.8407 12.4052 59.2802C11.9657 59.7198 11.7188 60.3159 11.7188 60.9375C11.7188 61.5591 11.9657 62.1552 12.4052 62.5948C12.8448 63.0343 13.4409 63.2812 14.0625 63.2812H18.75C19.3716 63.2812 19.9677 63.0343 20.4073 62.5948C20.8468 62.1552 21.0938 61.5591 21.0938 60.9375Z" fill="black"/>
</svg>
