<svg width="150" height="150" viewBox="0 0 150 150" fill="none" xmlns="http://www.w3.org/2000/svg">
<path d="M103.269 80.1463H113.553C115.468 80.1444 117.359 79.7154 119.087 78.8908C120.816 78.0662 122.339 76.8665 123.545 75.3792C124.752 73.8919 125.612 72.1543 126.062 70.2929C126.512 68.4315 126.542 66.493 126.149 64.6186C124.941 58.5769 119.259 54.4383 113.09 54.4383H95.5319C98.9555 49.904 100.773 44.3595 100.699 38.6784C100.544 25.1051 89.3095 13.6909 75.7099 13.3055C70.8724 13.1618 66.0929 14.3888 61.9228 16.8448C57.7528 19.3009 54.3621 22.886 52.1421 27.1863C49.9221 31.4867 48.9632 36.3271 49.3761 41.1491C49.789 45.971 51.5569 50.578 54.4756 54.4383H36.917C30.7473 54.4383 25.066 58.5769 23.8571 64.6186C23.4615 66.4912 23.4887 68.4286 23.9366 70.2894C24.3845 72.1503 25.2419 73.8878 26.4462 75.3753C27.6506 76.8629 29.1716 78.0631 30.8985 78.8884C32.6254 79.7138 34.5147 80.1435 36.4287 80.1463H46.7119C47.3877 80.144 48.0574 80.2755 48.6822 80.533C49.307 80.7906 49.8748 81.1693 50.3526 81.6472C50.8305 82.1251 51.2092 82.6928 51.4668 83.3176C51.7243 83.9425 51.8558 84.6121 51.8535 85.2879C51.8522 87.8747 51.1792 90.4167 49.9003 92.6652L35.8374 116.986C32.752 122.359 33.4976 129.325 38.1258 133.413C39.5516 134.691 41.2445 135.635 43.0812 136.176C44.9179 136.718 46.8522 136.843 48.7434 136.543C50.6345 136.242 52.4349 135.524 54.0135 134.44C55.5921 133.356 56.9091 131.934 57.8688 130.277L70.4403 108.477C70.9052 107.679 71.5712 107.017 72.3719 106.557C73.1725 106.096 74.0798 105.854 75.0033 105.854C75.9267 105.854 76.8341 106.096 77.6347 106.557C78.4354 107.017 79.1014 107.679 79.5663 108.477L91.9069 129.84C94.9911 135.213 101.418 138.041 107.28 136.061C109.096 135.465 110.756 134.471 112.14 133.152C113.523 131.833 114.595 130.222 115.277 128.437C115.959 126.652 116.235 124.736 116.083 122.831C115.932 120.926 115.357 119.078 114.401 117.423L100.107 92.6652C98.8205 90.4188 98.1384 87.8769 98.1278 85.2879C98.1269 84.6125 98.2592 83.9434 98.5173 83.3192C98.7753 82.6949 99.154 82.1278 99.6316 81.6501C100.109 81.1725 100.676 80.7938 101.301 80.5357C101.925 80.2777 102.594 80.1454 103.269 80.1463ZM60.2851 33.8719C60.2851 32.855 60.5867 31.8609 61.1516 31.0154C61.7166 30.1699 62.5196 29.5109 63.4591 29.1217C64.3986 28.7325 65.4324 28.6307 66.4298 28.8291C67.4272 29.0275 68.3433 29.5172 69.0624 30.2363C69.7815 30.9553 70.2711 31.8715 70.4695 32.8688C70.6679 33.8662 70.5661 34.9 70.1769 35.8395C69.7878 36.779 69.1288 37.582 68.2833 38.147C67.4377 38.712 66.4436 39.0135 65.4267 39.0135C64.7515 39.0137 64.0828 38.8808 63.4589 38.6225C62.835 38.3642 62.2682 37.9854 61.7907 37.508C61.3132 37.0305 60.9345 36.4636 60.6762 35.8397C60.4178 35.2158 60.2849 34.5472 60.2851 33.8719ZM74.9907 92.8974C73.9738 92.8974 72.9797 92.5959 72.1342 92.0309C71.2886 91.466 70.6296 90.663 70.2405 89.7234C69.8513 88.7839 69.7495 87.7501 69.9479 86.7528C70.1463 85.7554 70.636 84.8392 71.355 84.1202C72.0741 83.4011 72.9902 82.9114 73.9876 82.713C74.985 82.5146 76.0188 82.6165 76.9583 83.0056C77.8978 83.3948 78.7008 84.0538 79.2658 84.8993C79.8307 85.7448 80.1323 86.7389 80.1323 87.7558C80.1284 89.1183 79.5855 90.4238 78.6221 91.3872C77.6587 92.3506 76.3531 92.8936 74.9907 92.8974ZM74.9907 75.1077C73.9738 75.1077 72.9797 74.8062 72.1342 74.2412C71.2886 73.6762 70.6296 72.8732 70.2405 71.9337C69.8513 70.9942 69.7495 69.9604 69.9479 68.963C70.1463 67.9657 70.636 67.0495 71.355 66.3304C72.0741 65.6114 72.9902 65.1217 73.9876 64.9233C74.985 64.7249 76.0188 64.8267 76.9583 65.2159C77.8978 65.605 78.7008 66.2641 79.2658 67.1096C79.8307 67.9551 80.1323 68.9492 80.1323 69.9661C80.1325 70.6414 79.9996 71.31 79.7413 71.9339C79.4829 72.5578 79.1042 73.1247 78.6267 73.6021C78.1493 74.0796 77.5824 74.4583 76.9585 74.7166C76.3346 74.975 75.6659 75.1079 74.9907 75.1077ZM87.4844 47.2909C86.3805 49.6711 84.619 51.6861 82.4076 53.0982C80.1962 54.5103 77.6271 55.2606 75.0032 55.2606C72.3794 55.2606 69.8103 54.5103 67.5989 53.0982C65.3875 51.6861 63.626 49.6711 62.5221 47.2909C62.0891 46.367 62.0409 45.309 62.388 44.3496C62.7351 43.3902 63.4491 42.6079 64.373 42.175C65.2968 41.742 66.3548 41.6938 67.3142 42.0409C68.2737 42.388 69.0559 43.102 69.4889 44.0259C69.9735 45.0773 70.7493 45.9679 71.7243 46.5922C72.6994 47.2164 73.8329 47.5482 74.9907 47.5482C76.1485 47.5482 77.282 47.2164 78.2571 46.5922C79.2322 45.9679 80.008 45.0773 80.4926 44.0259C80.9297 43.1054 81.7132 42.3952 82.672 42.0502C83.6309 41.7053 84.6872 41.7537 85.6105 42.1849C86.5338 42.616 87.2491 43.3949 87.6002 44.3515C87.9512 45.3081 87.9096 46.3648 87.4844 47.2909ZM84.5797 39.0136C83.5628 39.0136 82.5687 38.712 81.7232 38.1471C80.8777 37.5821 80.2186 36.7791 79.8295 35.8396C79.4403 34.9001 79.3385 33.8663 79.5369 32.8689C79.7353 31.8715 80.225 30.9554 80.944 30.2363C81.6631 29.5172 82.5793 29.0276 83.5766 28.8292C84.574 28.6308 85.6078 28.7326 86.5473 29.1218C87.4868 29.5109 88.2898 30.1699 88.8548 31.0155C89.4198 31.861 89.7213 32.8551 89.7213 33.872C89.7215 34.5472 89.5886 35.2159 89.3303 35.8398C89.0719 36.4637 88.6932 37.0305 88.2157 37.508C87.7383 37.9855 87.1714 38.3642 86.5475 38.6225C85.9236 38.8808 85.255 39.0138 84.5797 39.0136Z" fill="black"/>
</svg>
